<svg width="444" height="64" viewBox="0 0 444 64" fill="none" xmlns="http://www.w3.org/2000/svg" class="styles_logo__w7Ckz"><path fill-rule="evenodd" clip-rule="evenodd" d="M29.2379 33.5287V22.4326L0.0694487 33.8379H0L0 45.2088H0.0694487L29.2379 56.614V45.518L14.2717 39.5061L29.2379 33.5287Z" fill="url(#nlwtogether0)"></path><path fill-rule="evenodd" clip-rule="evenodd" d="M188.144 56.03V44.9339L203.076 38.9565L188.144 32.979V21.883L217.278 33.2882H217.347V44.6935H217.278L188.144 56.03ZM175.643 6.2179L158.49 64H168.664L185.783 6.2179H175.643Z" fill="url(#nlwtogether1)"></path><path fill-rule="evenodd" clip-rule="evenodd" d="M72.088 20.337C74.9701 23.6693 76.498 28.1008 76.3244 32.6011V57.198H66.1501V34.834C66.2543 32.3606 65.5251 29.8872 64.0319 27.9634C63.3375 27.1046 62.4694 26.4519 61.4971 26.0053C60.5248 25.5587 59.4483 25.3526 58.3719 25.3869C52.0173 25.3869 48.8227 30.0246 48.8227 39.3V57.198H38.6484V16.7986H48.8227V20.4401C50.42 18.7911 52.3298 17.52 54.4133 16.6956C56.4968 15.8711 58.7191 15.4932 60.9415 15.5963C63.0249 15.4932 65.0737 15.8711 67.0182 16.6956C68.8934 17.52 70.6643 18.7568 72.088 20.337Z" fill="white"></path><path fill-rule="evenodd" clip-rule="evenodd" d="M84.2773 0V57.7821H94.4516V0L84.2773 0Z" fill="white"></path><path fill-rule="evenodd" clip-rule="evenodd" d="M148.919 55.6522H140.446L132.113 31.8454L123.709 55.6522H115.237L100.965 15.1841H111.834L119.855 39.4031L128.119 15.1841H136.071L144.336 39.4718L152.357 15.1841H163.191L148.919 55.6522Z" fill="white"></path><path d="M249.935 19.5458H244.194V26.3031H238V30.9574H244.194V51.4361H249.935V30.9574H256.095V26.3031H249.935V19.5458Z" fill="url(#nlwtogether2)"></path><path d="M279.339 27.3029C277.112 26.2687 274.572 25.7515 271.719 25.7515C268.865 25.7515 266.325 26.2687 264.063 27.3029C261.836 28.3372 260.061 29.8541 258.739 31.8193C257.417 33.7844 256.791 36.1633 256.791 38.9213C256.791 41.7139 257.452 44.0927 258.739 46.0579C260.061 48.023 261.836 49.5055 264.063 50.5053C266.29 51.5051 268.865 52.0222 271.719 52.0222C274.572 52.0222 277.112 51.5051 279.339 50.5053C281.566 49.5055 283.306 48.023 284.628 46.0579C285.916 44.0927 286.577 41.7484 286.577 38.9213C286.577 36.1633 285.916 33.7844 284.628 31.8193C283.306 29.8541 281.566 28.3717 279.339 27.3029ZM279.513 43.5411C278.713 44.8167 277.599 45.7476 276.242 46.4026C274.885 47.0577 273.354 47.4024 271.719 47.4024C270.048 47.4024 268.517 47.0577 267.16 46.4026C265.803 45.7476 264.69 44.7822 263.889 43.5411C263.089 42.2655 262.671 40.7486 262.671 38.9213C262.671 37.0941 263.089 35.5427 263.924 34.2671C264.759 32.9915 265.873 32.0261 267.23 31.3366C268.622 30.6471 270.118 30.3368 271.753 30.3368C273.458 30.3368 274.955 30.6816 276.312 31.3366C277.669 32.0261 278.748 32.9915 279.548 34.3015C280.348 35.6116 280.766 37.1286 280.766 38.9213C280.731 40.7486 280.314 42.3 279.513 43.5411Z" fill="url(#nlwtogether3)"></path><path d="M303.071 25.8894C302.41 25.786 301.714 25.7515 301.018 25.7515C298.512 25.7515 296.285 26.1997 294.372 27.1306C292.458 28.0269 290.961 29.3025 289.848 30.9574C288.769 32.6122 288.212 34.5429 288.212 36.8183C288.212 39.0592 288.769 41.0244 289.883 42.6103C290.996 44.2306 292.493 45.4718 294.441 46.2992C295.033 46.5405 295.624 46.7474 296.251 46.9198C295.346 46.9198 294.476 46.9887 293.676 47.0921C292.284 47.299 291.17 47.7472 290.335 48.4367C289.5 49.1262 289.048 50.126 289.048 51.4361C289.048 52.1256 289.187 52.7462 289.465 53.2978C289.744 53.8839 290.161 54.3666 290.753 54.7803C291.344 55.194 292.11 55.5043 293.084 55.7456C294.058 55.9525 295.242 56.0904 296.633 56.0904H303.628C305.402 56.0904 306.759 56.4351 307.769 57.0902C308.743 57.7797 309.23 58.9174 309.23 60.5378V61.71H314.972V59.4346C314.972 57.4005 314.554 55.8146 313.684 54.6768C312.849 53.5047 311.631 52.6773 310.065 52.1946C308.499 51.7119 306.655 51.4706 304.567 51.4706H297.225C296.494 51.4706 295.903 51.3327 295.485 51.0224C295.068 50.7121 294.859 50.2984 294.859 49.8157C294.859 48.9883 295.381 48.4022 296.425 48.1264C297.469 47.8506 299 47.6782 301.053 47.6093C303.523 47.6093 305.716 47.1956 307.629 46.3337C309.543 45.5063 311.005 44.2651 312.083 42.7137C313.162 41.1278 313.684 39.2316 313.684 37.0596C313.684 35.7151 313.406 34.5084 312.884 33.4741C312.327 32.4398 311.596 31.509 310.657 30.6816C310.135 30.2334 309.613 29.8197 309.021 29.4404C309.961 29.7852 310.935 30.13 312.049 30.4402C313.719 30.9229 315.354 31.1642 316.99 31.1642V26.3721L305.02 26.3376C304.358 26.1308 303.732 25.9928 303.071 25.8894ZM307.142 33.3362C307.769 34.3016 308.047 35.4393 308.047 36.7838C308.047 38.1284 307.734 39.2661 307.142 40.2314C306.516 41.1623 305.681 41.8863 304.637 42.3689C303.558 42.8516 302.375 43.0929 301.053 43.0929C299.661 43.0929 298.443 42.8516 297.399 42.3689C296.355 41.8863 295.52 41.1623 294.894 40.2314C294.267 39.3006 293.989 38.1284 293.989 36.7838C293.989 35.4393 294.302 34.3016 294.894 33.3362C295.52 32.3709 296.355 31.6469 297.399 31.1298C298.478 30.6126 299.696 30.3713 301.053 30.3713C302.41 30.3713 303.628 30.6126 304.672 31.1298C305.681 31.6469 306.516 32.4054 307.142 33.3362Z" fill="url(#nlwtogether4)"></path><path d="M340.443 27.3374C338.39 26.2686 335.85 25.7515 332.823 25.7515C329.865 25.7515 327.255 26.3031 325.028 27.3719C322.801 28.4406 321.026 29.9921 319.739 31.9572C318.451 33.9568 317.825 36.2667 317.825 38.9213C317.825 41.6105 318.486 43.9203 319.774 45.8855C321.096 47.8506 322.871 49.3331 325.167 50.4018C327.429 51.4706 330.074 51.9877 333.031 51.9877C335.606 51.9877 337.833 51.6085 339.643 50.85C341.487 50.0915 342.949 49.0573 344.062 47.7127C345.176 46.3682 345.837 44.8512 346.115 43.1274H340.548C340.095 44.3685 339.225 45.4028 337.868 46.1958C336.511 46.9887 334.876 47.368 332.892 47.368C331.083 47.368 329.517 47.0577 328.195 46.4026C326.872 45.7476 325.828 44.8857 325.028 43.7824C324.262 42.6792 323.775 41.4036 323.601 39.9901H346.185C346.359 36.7838 345.941 34.1292 344.967 32.0261C343.993 29.9921 342.496 28.4062 340.443 27.3374ZM323.984 36.3012C324.436 34.5429 325.411 33.1294 326.872 32.0261C328.369 30.9229 330.282 30.3713 332.614 30.3713C334.841 30.3713 336.685 30.8884 338.077 31.9227C339.469 32.957 340.234 34.4395 340.408 36.3012H323.984Z" fill="url(#nlwtogether5)"></path><path d="M358.955 19.5458H353.214V26.3031H347.02V30.9574H353.214V51.4361H358.955V30.9574H365.115V26.3031H358.955V19.5458Z" fill="url(#nlwtogether6)"></path><path d="M391.908 28.1648C391.004 27.3719 389.925 26.7858 388.672 26.3721C387.42 25.9584 386.028 25.7515 384.531 25.7515C382.966 25.7515 381.539 26.0273 380.217 26.5445C378.894 27.0616 377.781 27.7511 376.841 28.6475C375.902 29.5094 375.136 30.5092 374.545 31.6469C374.231 32.2675 373.988 32.9225 373.779 33.5431V16.2017H368.037V51.4361H373.779V36.4391C374.023 35.7151 374.371 35.06 374.858 34.405C375.693 33.3362 376.737 32.4743 378.059 31.8193C379.347 31.1642 380.808 30.854 382.409 30.854C383.975 30.854 385.227 31.0953 386.167 31.5435C387.106 31.9917 387.837 32.6812 388.29 33.5776C388.742 34.4739 388.985 35.5772 388.985 36.9217V51.4016H394.762V35.0945C394.762 33.5431 394.518 32.1985 394.031 31.0263C393.509 29.9231 392.813 28.9233 391.908 28.1648Z" fill="url(#nlwtogether7)"></path><path d="M420.233 27.3374C418.18 26.2686 415.64 25.7515 412.613 25.7515C409.655 25.7515 407.045 26.3031 404.818 27.3719C402.591 28.4406 400.817 29.9921 399.529 31.9572C398.242 33.9568 397.615 36.2667 397.615 38.9213C397.615 41.6105 398.276 43.9203 399.564 45.8855C400.886 47.8506 402.661 49.3331 404.957 50.4018C407.219 51.4706 409.864 51.9877 412.822 51.9877C415.397 51.9877 417.624 51.6085 419.433 50.85C421.277 50.0915 422.739 49.0573 423.852 47.7127C424.966 46.3682 425.627 44.8512 425.905 43.1274H420.338C419.885 44.3685 419.016 45.4028 417.658 46.1958C416.301 46.9887 414.666 47.368 412.682 47.368C410.873 47.368 409.307 47.0577 407.985 46.4026C406.662 45.7476 405.619 44.8857 404.818 43.7824C404.053 42.6792 403.566 41.4036 403.392 39.9901H425.975C426.149 36.7838 425.731 34.1292 424.757 32.0261C423.818 29.9921 422.286 28.4062 420.233 27.3374ZM403.809 36.3012C404.261 34.5429 405.236 33.1294 406.697 32.0261C408.194 30.9229 410.107 30.3713 412.439 30.3713C414.666 30.3713 416.51 30.8884 417.902 31.9227C419.294 32.957 420.059 34.4395 420.233 36.3012H403.809Z" fill="url(#nlwtogether8)"></path><path d="M440.207 26.5445C439.128 27.0961 438.224 27.7856 437.493 28.6475C436.762 29.5094 436.171 30.4058 435.718 31.3021C435.301 32.1296 435.022 32.9225 434.813 33.6465V26.3031H429.037V51.4361H434.779V37.4044C435.092 36.6804 435.509 35.8875 436.066 35.129C436.867 34.0258 437.91 33.0604 439.233 32.3019C440.555 31.5435 442.121 31.1298 444 31.1298V25.717C442.573 25.7515 441.286 26.0273 440.207 26.5445Z" fill="url(#nlwtogether9)"></path><defs><linearGradient id="nlwtogether0" x1="-7.91193e-10" y1="31.7767" x2="448.991" y2="32.8219" gradientUnits="userSpaceOnUse"><stop stop-color="#8257E6"></stop><stop offset="0.568204" stop-color="#4763FF"></stop><stop offset="0.939176" stop-color="#04D361"></stop></linearGradient><linearGradient id="nlwtogether1" x1="-7.91193e-10" y1="31.7767" x2="448.991" y2="32.8219" gradientUnits="userSpaceOnUse"><stop stop-color="#8257E6"></stop><stop offset="0.568204" stop-color="#4763FF"></stop><stop offset="0.939176" stop-color="#04D361"></stop></linearGradient><linearGradient id="nlwtogether2" x1="-10.8007" y1="39.0248" x2="444" y2="39.1368" gradientUnits="userSpaceOnUse"><stop stop-color="#8257E6"></stop><stop offset="0.526042" stop-color="#4763FF"></stop><stop offset="1" stop-color="#04D361"></stop></linearGradient><linearGradient id="nlwtogether3" x1="-10.8007" y1="39.0248" x2="444" y2="39.1368" gradientUnits="userSpaceOnUse"><stop stop-color="#8257E6"></stop><stop offset="0.526042" stop-color="#4763FF"></stop><stop offset="1" stop-color="#04D361"></stop></linearGradient><linearGradient id="nlwtogether4" x1="-10.8007" y1="39.0248" x2="444" y2="39.1368" gradientUnits="userSpaceOnUse"><stop stop-color="#8257E6"></stop><stop offset="0.526042" stop-color="#4763FF"></stop><stop offset="1" stop-color="#04D361"></stop></linearGradient><linearGradient id="nlwtogether5" x1="-10.8007" y1="39.0248" x2="444" y2="39.1368" gradientUnits="userSpaceOnUse"><stop stop-color="#8257E6"></stop><stop offset="0.526042" stop-color="#4763FF"></stop><stop offset="1" stop-color="#04D361"></stop></linearGradient><linearGradient id="nlwtogether6" x1="-10.8007" y1="39.0248" x2="444" y2="39.1368" gradientUnits="userSpaceOnUse"><stop stop-color="#8257E6"></stop><stop offset="0.526042" stop-color="#4763FF"></stop><stop offset="1" stop-color="#04D361"></stop></linearGradient><linearGradient id="nlwtogether7" x1="-10.8007" y1="39.0248" x2="444" y2="39.1368" gradientUnits="userSpaceOnUse"><stop stop-color="#8257E6"></stop><stop offset="0.526042" stop-color="#4763FF"></stop><stop offset="1" stop-color="#04D361"></stop></linearGradient><linearGradient id="nlwtogether8" x1="-10.8007" y1="39.0248" x2="444" y2="39.1368" gradientUnits="userSpaceOnUse"><stop stop-color="#8257E6"></stop><stop offset="0.526042" stop-color="#4763FF"></stop><stop offset="1" stop-color="#04D361"></stop></linearGradient><linearGradient id="nlwtogether9" x1="-10.8007" y1="39.0248" x2="444" y2="39.1368" gradientUnits="userSpaceOnUse"><stop stop-color="#8257E6"></stop><stop offset="0.526042" stop-color="#4763FF"></stop><stop offset="1" stop-color="#04D361"></stop></linearGradient></defs></svg>
